<?xml version="1.0" encoding="utf-8"?>
<svg version="1.1" xmlns:xlink="http://www.w3.org/1999/xlink" width="11px" height="7px" xmlns="http://www.w3.org/2000/svg">
  <g transform="matrix(1 0 0 1 -107 -347 )">
    <path d="M 8.16713169642857 5.48394097222222  C 8.98763020833333 4.99175347222222  9.67001488095238 4.33043981481481  10.2142857142857 3.5  C 9.59226190476191 2.54398148148148  8.81268601190476 1.82899305555556  7.87555803571429 1.35503472222222  C 8.12518601190476 1.77633101851852  8.25 2.23206018518519  8.25 2.72222222222222  C 8.25 3.47164351851852  7.98093377976191 4.1127025462963  7.44280133928571 4.64539930555556  C 6.90466889880952 5.17809606481481  6.25706845238095 5.44444444444444  5.5 5.44444444444444  C 4.74293154761905 5.44444444444444  4.09533110119048 5.17809606481481  3.55719866071429 4.64539930555556  C 3.0190662202381 4.1127025462963  2.75 3.47164351851852  2.75 2.72222222222222  C 2.75 2.23206018518519  2.87481398809524 1.77633101851852  3.12444196428571 1.35503472222222  C 2.18731398809524 1.82899305555556  1.4077380952381 2.54398148148148  0.785714285714286 3.5  C 1.32998511904762 4.33043981481481  2.01236979166667 4.99175347222222  2.83286830357143 5.48394097222222  C 3.65336681547619 5.97612847222222  4.54241071428571 6.22222222222222  5.5 6.22222222222222  C 6.45758928571429 6.22222222222222  7.34663318452381 5.97612847222222  8.16713169642857 5.48394097222222  Z M 5.70870535714286 1.37326388888889  C 5.76599702380952 1.31655092592593  5.79464285714286 1.24768518518518  5.79464285714286 1.16666666666667  C 5.79464285714286 1.08564814814815  5.76599702380952 1.01678240740741  5.70870535714286 0.960069444444445  C 5.65141369047619 0.903356481481481  5.58184523809524 0.874999999999999  5.5 0.875  C 4.98846726190476 0.874999999999999  4.54957217261905 1.05627893518518  4.18331473214286 1.41883680555556  C 3.81705729166667 1.78139467592593  3.63392857142857 2.21585648148148  3.63392857142857 2.72222222222222  C 3.63392857142857 2.80324074074074  3.66257440476191 2.87210648148148  3.71986607142857 2.92881944444444  C 3.77715773809524 2.98553240740741  3.84672619047619 3.01388888888889  3.92857142857143 3.01388888888889  C 4.01041666666667 3.01388888888889  4.07998511904762 2.98553240740741  4.13727678571429 2.92881944444444  C 4.19456845238095 2.87210648148148  4.22321428571429 2.80324074074074  4.22321428571429 2.72222222222222  C 4.22321428571429 2.37384259259259  4.34802827380952 2.07609953703704  4.59765625 1.82899305555556  C 4.84728422619048 1.58188657407407  5.14806547619048 1.45833333333333  5.5 1.45833333333333  C 5.58184523809524 1.45833333333333  5.65141369047619 1.42997685185185  5.70870535714286 1.37326388888889  Z M 10.8772321428571 3.08072916666667  C 10.9590773809524 3.22251157407407  11 3.36226851851852  11 3.5  C 11 3.63773148148148  10.9590773809524 3.77748842592593  10.8772321428571 3.91927083333333  C 10.3043154761905 4.8509837962963  9.53394717261905 5.59736689814815  8.56612723214286 6.15842013888889  C 7.59830729166667 6.71947337962963  6.57626488095238 7  5.5 7  C 4.42373511904762 7  3.40169270833333 6.71846064814815  2.43387276785714 6.15538194444444  C 1.46605282738095 5.59230324074074  0.695684523809524 4.84693287037037  0.122767857142857 3.91927083333333  C 0.040922619047619 3.77748842592593  0 3.63773148148148  0 3.5  C 0 3.36226851851852  0.040922619047619 3.22251157407407  0.122767857142857 3.08072916666667  C 0.695684523809524 2.15306712962963  1.46605282738095 1.40769675925926  2.43387276785714 0.844618055555555  C 3.40169270833333 0.281539351851851  4.42373511904762 0  5.5 0  C 6.57626488095238 0  7.59830729166667 0.281539351851851  8.56612723214286 0.844618055555555  C 9.53394717261905 1.40769675925926  10.3043154761905 2.15306712962963  10.8772321428571 3.08072916666667  Z " fill-rule="nonzero" fill="#555555" stroke="none" transform="matrix(1 0 0 1 107 347 )" />
  </g>
</svg>