<?xml version="1.0" encoding="utf-8"?>
<svg version="1.1" xmlns:xlink="http://www.w3.org/1999/xlink" width="133px" height="68px" xmlns="http://www.w3.org/2000/svg">
  <g transform="matrix(1 0 0 1 -3 -244 )">
    <path d="M 3 244  L 136 244  L 136 312  L 3 312  L 3 244  " fill-rule="nonzero" fill="#cccccc" stroke="none" />
    <path d="M 8 249  L 131 249  L 131 307  L 8 307  L 8 249  " fill-rule="nonzero" fill="#ffffff" stroke="none" />
    <path d="M 77.26 264.4  C 74.404 264.4  72.16 262.156  72.16 259.3  C 72.16 256.444  74.404 254.2  77.26 254.2  C 80.116 254.2  82.36 256.444  82.36 259.3  C 82.36 262.156  80.116 264.4  77.26 264.4  " fill-rule="nonzero" fill="#cccccc" stroke="none" />
    <path d="M 10 306  L 10 275.75  L 40 262  L 82 289.127819548872  L 106 270.25  L 130 289.127819548872  L 130 306  L 10 306  " fill-rule="nonzero" fill="#169bd5" stroke="none" />
  </g>
</svg>