<?xml version="1.0" encoding="utf-8"?>
<svg version="1.1" xmlns:xlink="http://www.w3.org/1999/xlink" width="13px" height="13px" xmlns="http://www.w3.org/2000/svg">
  <g transform="matrix(1 0 0 1 -298 -231 )">
    <path d="M 304.5 231  C 308.14 231  311 233.86  311 237.5  C 311 241.14  308.14 244  304.5 244  C 300.86 244  298 241.14  298 237.5  C 298 233.86  300.86 231  304.5 231  Z " fill-rule="nonzero" fill="#027db4" stroke="none" />
    <path d="M 304.5 231.5  C 307.86 231.5  310.5 234.14  310.5 237.5  C 310.5 240.86  307.86 243.5  304.5 243.5  C 301.14 243.5  298.5 240.86  298.5 237.5  C 298.5 234.14  301.14 231.5  304.5 231.5  Z " stroke-width="1" stroke="#797979" fill="none" />
  </g>
</svg>