<?xml version="1.0" encoding="utf-8"?>
<svg version="1.1" xmlns:xlink="http://www.w3.org/1999/xlink" width="16px" height="36px" xmlns="http://www.w3.org/2000/svg">
  <g transform="matrix(1 0 0 1 -8 -451 )">
    <path d="M 9.47412008281574 17.1703406813627  C 9.58454106280193 17.4108216432866  9.63975155279503 17.687374749499  9.63975155279503 18  C 9.63975155279503 18.312625250501  9.58454106280193 18.5891783567134  9.47412008281574 18.8296593186373  L 1.75569358178054 35.6392785571142  C 1.64527260179434 35.8797595190381  1.51828847481021 36  1.37474120082816 36  C 1.2311939268461 36  1.10420979986197 35.8797595190381  0.993788819875776 35.6392785571142  L 0.165631469979296 33.8356713426854  C 0.0552104899930987 33.5951903807615  0 33.3186372745491  0 33.0060120240481  C 0 32.6933867735471  0.0552104899930987 32.4168336673347  0.165631469979296 32.1763527054108  L 6.67494824016563 18  L 0.165631469979296 3.82364729458918  C 0.0552104899930987 3.58316633266533  0 3.3066132264529  0 2.9939879759519  C 0 2.6813627254509  0.0552104899930987 2.40480961923847  0.165631469979296 2.16432865731463  L 0.993788819875776 0.360721442885772  C 1.10420979986197 0.120240480961923  1.2311939268461 0  1.37474120082816 0  C 1.51828847481021 0  1.64527260179434 0.120240480961923  1.75569358178054 0.360721442885772  L 9.47412008281574 17.1703406813627  Z M 15.8343685300207 17.1703406813627  C 15.9447895100069 17.4108216432866  16 17.687374749499  16 18  C 16 18.312625250501  15.9447895100069 18.5891783567134  15.8343685300207 18.8296593186373  L 8.11594202898551 35.6392785571142  C 8.00552104899931 35.8797595190381  7.87853692201518 36  7.73498964803313 36  C 7.59144237405107 36  7.46445824706694 35.8797595190381  7.35403726708075 35.6392785571142  L 6.52587991718427 33.8356713426854  C 6.41545893719807 33.5951903807615  6.36024844720497 33.3186372745491  6.36024844720497 33.0060120240481  C 6.36024844720497 32.6933867735471  6.41545893719807 32.4168336673347  6.52587991718427 32.1763527054108  L 13.0351966873706 18  L 6.52587991718427 3.82364729458918  C 6.41545893719807 3.58316633266533  6.36024844720497 3.3066132264529  6.36024844720497 2.9939879759519  C 6.36024844720497 2.6813627254509  6.41545893719807 2.40480961923847  6.52587991718427 2.16432865731463  L 7.35403726708075 0.360721442885772  C 7.46445824706694 0.120240480961923  7.59144237405107 0  7.73498964803313 0  C 7.87853692201518 0  8.00552104899931 0.120240480961923  8.11594202898551 0.360721442885772  L 15.8343685300207 17.1703406813627  Z " fill-rule="nonzero" fill="#fe8333" stroke="none" fill-opacity="0.658823529411765" transform="matrix(1 0 0 1 8 451 )" />
  </g>
</svg>