<?xml version="1.0" encoding="utf-8"?>
<svg version="1.1" xmlns:xlink="http://www.w3.org/1999/xlink" width="74px" height="76px" xmlns="http://www.w3.org/2000/svg">
  <g transform="matrix(1 0 0 1 -124 -207 )">
    <path d="M 55.5 35.2786458333333  C 56.5277777777778 35.8723958333333  57.0416666666667 36.7795138888889  57.0416666666667 38  C 57.0416666666667 39.2204861111111  56.5277777777778 40.1276041666667  55.5 40.7213541666667  L 29.2916666666667 56.5546875  C 28.8098958333333 56.8515625  28.2960069444444 57  27.75 57  C 27.2361111111111 57  26.7222222222222 56.8680555555556  26.2083333333333 56.6041666666667  C 25.1805555555556 55.9774305555556  24.6666666666667 55.0538194444444  25 53.8333333333333  L 25 22.1666666666667  C 24.6666666666667 20.9461805555556  25.1805555555556 20.0225694444444  26.2083333333333 19.3958333333333  C 27.2682291666667 18.8020833333333  28.2960069444444 18.8185763888889  29.2916666666667 19.4453125  L 55.5 35.2786458333333  Z M 59.69140625 51.5078125  C 62.0360243055556 47.3845486111111  63.2083333333333 42.8819444444445  63.2083333333333 38  C 63.2083333333333 33.1180555555556  62.0360243055556 28.6154513888889  59.69140625 24.4921875  C 57.3467881944445 20.3689236111111  54.1671006944445 17.1032986111111  50.15234375 14.6953125  C 46.1375868055556 12.2873263888889  41.7534722222222 11.0833333333333  37 11.0833333333333  C 32.2465277777778 11.0833333333333  27.8624131944444 12.2873263888889  23.84765625 14.6953125  C 19.8328993055556 17.1032986111111  16.6532118055556 20.3689236111111  14.30859375 24.4921875  C 11.9639756944444 28.6154513888889  10.7916666666667 33.1180555555556  10.7916666666667 38  C 10.7916666666667 42.8819444444445  11.9639756944444 47.3845486111111  14.30859375 51.5078125  C 16.6532118055556 55.6310763888889  19.8328993055556 58.8967013888889  23.84765625 61.3046875  C 27.8624131944444 63.7126736111111  32.2465277777778 64.9166666666667  37 64.9166666666667  C 41.7534722222222 64.9166666666667  46.1375868055556 63.7126736111111  50.15234375 61.3046875  C 54.1671006944445 58.8967013888889  57.3467881944445 55.6310763888889  59.69140625 51.5078125  Z M 69.0377604166667 18.92578125  C 72.3459201388889 24.7478298611111  74 31.1059027777778  74 38  C 74 44.8940972222222  72.3459201388889 51.2521701388889  69.0377604166667 57.07421875  C 65.7296006944445 62.8962673611111  61.2411024305556 67.5060763888889  55.572265625 70.9036458333333  C 49.9034288194445 74.3012152777778  43.7126736111111 76  37 76  C 30.2873263888889 76  24.0965711805556 74.3012152777778  18.427734375 70.9036458333333  C 12.7588975694444 67.5060763888889  8.27039930555556 62.8962673611111  4.96223958333333 57.07421875  C 1.65407986111111 51.2521701388889  0 44.8940972222222  0 38  C 0 31.1059027777778  1.65407986111111 24.7478298611111  4.96223958333333 18.92578125  C 8.27039930555556 13.1037326388889  12.7588975694444 8.4939236111111  18.427734375 5.09635416666666  C 24.0965711805556 1.69878472222222  30.2873263888889 0  37 0  C 43.7126736111111 0  49.9034288194445 1.69878472222222  55.572265625 5.09635416666666  C 61.2411024305556 8.4939236111111  65.7296006944445 13.1037326388889  69.0377604166667 18.92578125  Z " fill-rule="nonzero" fill="#fe8333" stroke="none" fill-opacity="0.301960784313725" transform="matrix(1 0 0 1 124 207 )" />
  </g>
</svg>