<?xml version="1.0" encoding="utf-8"?>
<svg version="1.1" xmlns:xlink="http://www.w3.org/1999/xlink" width="20px" height="20px" xmlns="http://www.w3.org/2000/svg">
  <g transform="matrix(1 0 0 1 -294 -292 )">
    <path d="M 18.5807291666667 7.25260416666667  L 16.7057291666667 5.37760416666667  L 12.0833333333333 10  L 16.7057291666667 14.6223958333333  L 18.5807291666667 12.7473958333333  C 18.8324652777778 12.4782986111111  19.1362847222222 12.4175347222222  19.4921875 12.5651041666667  C 19.8307291666667 12.7126736111111  20 12.96875  20 13.3333333333333  L 20 19.1666666666667  C 20 19.3923611111111  19.9175347222222 19.5876736111111  19.7526041666667 19.7526041666667  C 19.5876736111111 19.9175347222222  19.3923611111111 20  19.1666666666667 20  L 13.3333333333333 20  C 12.96875 20  12.7126736111111 19.8263888888889  12.5651041666667 19.4791666666667  C 12.4175347222222 19.140625  12.4782986111111 18.8411458333333  12.7473958333333 18.5807291666667  L 14.6223958333333 16.7057291666667  L 10 12.0833333333333  L 5.37760416666667 16.7057291666667  L 7.25260416666667 18.5807291666667  C 7.52170138888889 18.8411458333333  7.58246527777778 19.140625  7.43489583333333 19.4791666666667  C 7.28732638888889 19.8263888888889  7.03125 20  6.66666666666667 20  L 0.833333333333333 20  C 0.607638888888889 20  0.412326388888889 19.9175347222222  0.247395833333333 19.7526041666667  C 0.0824652777777778 19.5876736111111  0 19.3923611111111  0 19.1666666666667  L 0 13.3333333333333  C 0 12.96875  0.173611111111111 12.7126736111111  0.520833333333333 12.5651041666667  C 0.859375 12.4175347222222  1.15885416666667 12.4782986111111  1.41927083333333 12.7473958333333  L 3.29427083333333 14.6223958333333  L 7.91666666666667 10  L 3.29427083333333 5.37760416666667  L 1.41927083333333 7.25260416666667  C 1.25434027777778 7.41753472222222  1.05902777777778 7.5  0.833333333333333 7.5  C 0.729166666666667 7.5  0.625 7.47829861111111  0.520833333333333 7.43489583333333  C 0.173611111111111 7.28732638888889  0 7.03125  0 6.66666666666667  L 0 0.833333333333333  C 0 0.607638888888886  0.0824652777777778 0.412326388888886  0.247395833333333 0.247395833333333  C 0.412326388888889 0.0824652777777768  0.607638888888889 0  0.833333333333333 0  L 6.66666666666667 0  C 7.03125 0  7.28732638888889 0.173611111111109  7.43489583333333 0.520833333333333  C 7.58246527777778 0.859375  7.52170138888889 1.15885416666667  7.25260416666667 1.41927083333333  L 5.37760416666667 3.29427083333333  L 10 7.91666666666667  L 14.6223958333333 3.29427083333333  L 12.7473958333333 1.41927083333333  C 12.4782986111111 1.15885416666667  12.4175347222222 0.859375  12.5651041666667 0.520833333333333  C 12.7126736111111 0.173611111111109  12.96875 0  13.3333333333333 0  L 19.1666666666667 0  C 19.3923611111111 0  19.5876736111111 0.0824652777777768  19.7526041666667 0.247395833333333  C 19.9175347222222 0.412326388888886  20 0.607638888888886  20 0.833333333333333  L 20 6.66666666666667  C 20 7.03125  19.8307291666667 7.28732638888889  19.4921875 7.43489583333333  C 19.3793402777778 7.47829861111111  19.2708333333333 7.5  19.1666666666667 7.5  C 18.9409722222222 7.5  18.7456597222222 7.41753472222222  18.5807291666667 7.25260416666667  Z " fill-rule="nonzero" fill="#fe8333" stroke="none" fill-opacity="0.658823529411765" transform="matrix(1 0 0 1 294 292 )" />
  </g>
</svg>