<?xml version="1.0" encoding="utf-8"?>
<svg version="1.1" xmlns:xlink="http://www.w3.org/1999/xlink" width="16px" height="36px" xmlns="http://www.w3.org/2000/svg">
  <g transform="matrix(1 0 0 1 -297 -429 )">
    <path d="M 9.47412008281574 32.1763527054108  C 9.58454106280193 32.4168336673347  9.63975155279503 32.6933867735471  9.63975155279503 33.0060120240481  C 9.63975155279503 33.3186372745491  9.58454106280193 33.5951903807615  9.47412008281574 33.8356713426854  L 8.64596273291926 35.6392785571142  C 8.53554175293306 35.8797595190381  8.40855762594893 36  8.26501035196687 36  C 8.12146307798482 36  7.99447895100069 35.8797595190381  7.88405797101449 35.6392785571142  L 0.165631469979296 18.8296593186373  C 0.0552104899930987 18.5891783567134  0 18.312625250501  0 18  C 0 17.687374749499  0.0552104899930987 17.4108216432866  0.165631469979296 17.1703406813627  L 7.88405797101449 0.360721442885772  C 7.99447895100069 0.120240480961923  8.12146307798482 0  8.26501035196687 0  C 8.40855762594893 0  8.53554175293306 0.120240480961923  8.64596273291926 0.360721442885772  L 9.47412008281574 2.16432865731463  C 9.58454106280193 2.40480961923847  9.63975155279503 2.6813627254509  9.63975155279503 2.9939879759519  C 9.63975155279503 3.3066132264529  9.58454106280193 3.58316633266533  9.47412008281574 3.82364729458918  L 2.9648033126294 18  L 9.47412008281574 32.1763527054108  Z M 15.8343685300207 32.1763527054108  C 15.9447895100069 32.4168336673347  16 32.6933867735471  16 33.0060120240481  C 16 33.3186372745491  15.9447895100069 33.5951903807615  15.8343685300207 33.8356713426854  L 15.0062111801242 35.6392785571142  C 14.895790200138 35.8797595190381  14.7688060731539 36  14.6252587991718 36  C 14.4817115251898 36  14.3547273982057 35.8797595190381  14.2443064182195 35.6392785571142  L 6.52587991718427 18.8296593186373  C 6.41545893719807 18.5891783567134  6.36024844720497 18.312625250501  6.36024844720497 18  C 6.36024844720497 17.687374749499  6.41545893719807 17.4108216432866  6.52587991718427 17.1703406813627  L 14.2443064182195 0.360721442885772  C 14.3547273982057 0.120240480961923  14.4817115251898 0  14.6252587991718 0  C 14.7688060731539 0  14.895790200138 0.120240480961923  15.0062111801242 0.360721442885772  L 15.8343685300207 2.16432865731463  C 15.9447895100069 2.40480961923847  16 2.6813627254509  16 2.9939879759519  C 16 3.3066132264529  15.9447895100069 3.58316633266533  15.8343685300207 3.82364729458918  L 9.32505175983437 18  L 15.8343685300207 32.1763527054108  Z " fill-rule="nonzero" fill="#fe8333" stroke="none" fill-opacity="0.658823529411765" transform="matrix(1 0 0 1 297 429 )" />
  </g>
</svg>