<?xml version="1.0" encoding="utf-8"?>
<svg version="1.1" xmlns:xlink="http://www.w3.org/1999/xlink" width="50px" height="35px" xmlns="http://www.w3.org/2000/svg">
  <g transform="matrix(1 0 0 1 -17 -271 )">
    <path d="M 20 9.97222222222222  L 20 23.9444444444444  L 33.3333333333333 17  L 20 9.97222222222222  Z M 7.52508361204013 0.499999999999998  C 12.1887774061687 0.166666666666666  18.0137495354887 0  25 0  C 28.1215161649944 0  31.1361947231512 0.0416666666666665  34.0440356744705 0.125  C 36.9518766257897 0.208333333333333  39.083983649201 0.296296296296294  40.4403567447046 0.388888888888888  L 42.4749163879599 0.499999999999998  C 42.4934968413229 0.499999999999998  42.651430694909 0.513888888888887  42.9487179487179 0.541666666666665  C 43.2460052025269 0.569444444444446  43.4596804162022 0.597222222222224  43.5897435897436 0.625000000000002  C 43.719806763285 0.652777777777779  43.938127090301 0.694444444444446  44.2447045707915 0.750000000000001  C 44.5512820512821 0.805555555555557  44.8160535117057 0.879629629629625  45.0390189520624 0.972222222222223  C 45.2619843924192 1.06481481481481  45.522110739502 1.18518518518518  45.819397993311 1.33333333333333  C 46.11668524712 1.48148148148148  46.4046822742475 1.66203703703704  46.6833890746934 1.875  C 46.9620958751394 2.08796296296296  47.2315124489038 2.33333333333333  47.4916387959866 2.61111111111111  C 47.603121516165 2.72222222222222  47.7471200297287 2.89351851851851  47.9236343366778 3.125  C 48.1001486436269 3.35648148148148  48.3695652173913 3.89814814814815  48.731884057971 4.75  C 49.0942028985507 5.60185185185185  49.3403939056113 6.53703703703703  49.4704570791527 7.55555555555556  C 49.6191007060572 8.74074074074074  49.7352285395764 10.0046296296296  49.8188405797101 11.3472222222222  C 49.9024526198439 12.6898148148148  49.9535488665923 13.7407407407407  49.9721293199554 14.5  L 49.9721293199554 15.6111111111111  L 49.9721293199554 19.3888888888889  C 49.9907097733185 22.0740740740741  49.8234856930509 24.7592592592593  49.4704570791527 27.4444444444444  C 49.3403939056113 28.462962962963  49.108138238573 29.3842592592593  48.7736900780379 30.2083333333333  C 48.4392419175028 31.0324074074074  48.1419546636938 31.6018518518519  47.8818283166109 31.9166666666667  L 47.4916387959866 32.3888888888889  C 47.2315124489038 32.6666666666667  46.9620958751394 32.912037037037  46.6833890746934 33.125  C 46.4046822742475 33.337962962963  46.11668524712 33.5138888888889  45.819397993311 33.6527777777778  C 45.522110739502 33.7916666666667  45.2619843924192 33.9074074074074  45.0390189520624 34  C 44.8160535117057 34.0925925925926  44.5512820512821 34.1666666666667  44.2447045707915 34.2222222222222  C 43.938127090301 34.2777777777778  43.7151616499443 34.3194444444444  43.5758082497213 34.3472222222222  C 43.4364548494983 34.375  43.2227796358231 34.4027777777778  42.9347826086957 34.4305555555556  C 42.6467855815682 34.4583333333333  42.4934968413229 34.4722222222222  42.4749163879599 34.4722222222222  C 37.8112225938313 34.8240740740741  31.9862504645113 35  25 35  C 21.1538461538462 34.962962962963  17.8140096618358 34.9027777777778  14.9804905239688 34.8194444444444  C 12.1469713861018 34.7361111111111  10.2842809364549 34.6666666666667  9.39241917502787 34.6111111111111  L 8.02675585284281 34.5  L 7.02341137123746 34.3888888888889  C 6.35451505016722 34.2962962962963  5.84819769602378 34.2037037037037  5.50445930880714 34.1111111111111  C 5.16072092159049 34.0185185185185  4.6869193608324 33.8240740740741  4.08305462653289 33.5277777777778  C 3.47918989223337 33.2314814814815  2.95429208472687 32.8518518518519  2.50836120401338 32.3888888888889  C 2.39687848383501 32.2777777777778  2.25287997027128 32.1064814814815  2.07636566332219 31.875  C 1.8998513563731 31.6435185185185  1.6304347826087 31.1018518518519  1.26811594202899 30.25  C 0.905797101449275 29.3981481481481  0.659606094388703 28.462962962963  0.529542920847269 27.4444444444444  C 0.380899293942772 26.2592592592593  0.264771460423634 24.9953703703704  0.181159420289855 23.6527777777778  C 0.0975473801560758 22.3101851851852  0.0464511334076552 21.2592592592593  0.0278706800445931 20.5  L 0.0278706800445931 19.3888888888889  L 0.0278706800445931 15.6111111111111  C 0.00929022668153103 12.9259259259259  0.17651430694909 10.2407407407407  0.529542920847269 7.55555555555556  C 0.659606094388703 6.53703703703703  0.891861761426979 5.61574074074074  1.2263099219621 4.79166666666667  C 1.56075808249721 3.96759259259259  1.85804533630621 3.39814814814815  2.11817168338907 3.08333333333333  L 2.50836120401338 2.61111111111111  C 2.76848755109625 2.33333333333333  3.03790412486065 2.08796296296296  3.31661092530658 1.875  C 3.59531772575251 1.66203703703704  3.88331475287997 1.48148148148148  4.18060200668896 1.33333333333333  C 4.47788926049796 1.18518518518518  4.73801560758082 1.06481481481481  4.96098104793757 0.972222222222223  C 5.18394648829431 0.879629629629625  5.44871794871795 0.805555555555557  5.75529542920847 0.750000000000001  C 6.061872909699 0.694444444444446  6.28019323671498 0.652777777777779  6.41025641025641 0.625000000000002  C 6.54031958379784 0.597222222222224  6.75399479747306 0.569444444444446  7.05128205128205 0.541666666666665  C 7.34856930509104 0.513888888888887  7.50650315867707 0.499999999999998  7.52508361204013 0.499999999999998  Z " fill-rule="nonzero" fill="#fe8333" stroke="none" fill-opacity="0.658823529411765" transform="matrix(1 0 0 1 17 271 )" />
  </g>
</svg>