<?xml version="1.0" encoding="utf-8"?>
<svg version="1.1" xmlns:xlink="http://www.w3.org/1999/xlink" width="322px" height="113px" xmlns="http://www.w3.org/2000/svg">
  <g transform="matrix(1 0 0 1 0 -96 )">
    <path d="M 0 96  L 322 96  L 322 209  L 0 209  L 0 96  " fill-rule="nonzero" fill="#cccccc" stroke="none" />
    <path d="M 8 104  L 314 104  L 314 201  L 8 201  L 8 104  " fill-rule="nonzero" fill="#ffffff" stroke="none" />
    <path d="M 175.915 129.9  C 171.169 129.9  167.44 126.171  167.44 121.425  C 167.44 116.679  171.169 112.95  175.915 112.95  C 180.661 112.95  184.39 116.679  184.39 121.425  C 184.39 126.171  180.661 129.9  175.915 129.9  " fill-rule="nonzero" fill="#cccccc" stroke="none" />
    <path d="M 11 198  L 11 147.95  L 86 125.2  L 191 178.839130434783  L 251 138.85  L 311 178.839130434783  L 311 198  L 11 198  " fill-rule="nonzero" fill="#169bd5" stroke="none" />
  </g>
</svg>