<?xml version="1.0" encoding="utf-8"?>
<svg version="1.1" xmlns:xlink="http://www.w3.org/1999/xlink" width="37px" height="37px" xmlns="http://www.w3.org/2000/svg">
  <g transform="matrix(1 0 0 1 -78 -212 )">
    <path d="M 96.5 212.5  C 106.58 212.5  114.5 220.42  114.5 230.5  C 114.5 240.58  106.58 248.5  96.5 248.5  C 86.42 248.5  78.5 240.58  78.5 230.5  C 78.5 220.42  86.42 212.5  96.5 212.5  Z " fill-rule="nonzero" fill="#ffffff" stroke="none" />
    <path d="M 96.5 212.5  C 106.58 212.5  114.5 220.42  114.5 230.5  C 114.5 240.58  106.58 248.5  96.5 248.5  C 86.42 248.5  78.5 240.58  78.5 230.5  C 78.5 220.42  86.42 212.5  96.5 212.5  Z " stroke-width="1" stroke="#fe8333" fill="none" stroke-opacity="0.658823529411765" />
  </g>
</svg>