<?xml version="1.0" encoding="utf-8"?>
<svg version="1.1" xmlns:xlink="http://www.w3.org/1999/xlink" width="21px" height="25px" xmlns="http://www.w3.org/2000/svg">
  <g transform="matrix(1 0 0 1 -223 -228 )">
    <path d="M 5.83333333333333 7.95454545454546  L 5.83333333333333 11.3636363636364  L 15.1666666666667 11.3636363636364  L 15.1666666666667 7.95454545454546  C 15.1666666666667 6.6998106060606  14.7109375 5.62855113636363  13.7994791666667 4.74076704545454  C 12.8880208333333 3.85298295454546  11.7881944444444 3.40909090909091  10.5 3.40909090909091  C 9.21180555555556 3.40909090909091  8.11197916666667 3.85298295454546  7.20052083333333 4.74076704545454  C 6.2890625 5.62855113636363  5.83333333333333 6.6998106060606  5.83333333333333 7.95454545454546  Z M 20.4895833333333 11.8607954545455  C 20.8298611111111 12.1922348484848  21 12.594696969697  21 13.0681818181818  L 21 23.2954545454545  C 21 23.7689393939394  20.8298611111111 24.1714015151515  20.4895833333333 24.5028409090909  C 20.1493055555556 24.8342803030303  19.7361111111111 25  19.25 25  L 1.75 25  C 1.26388888888889 25  0.850694444444445 24.8342803030303  0.510416666666667 24.5028409090909  C 0.170138888888889 24.1714015151515  0 23.7689393939394  0 23.2954545454545  L 0 13.0681818181818  C 0 12.594696969697  0.170138888888889 12.1922348484848  0.510416666666667 11.8607954545455  C 0.850694444444445 11.5293560606061  1.26388888888889 11.3636363636364  1.75 11.3636363636364  L 2.33333333333333 11.3636363636364  L 2.33333333333333 7.95454545454546  C 2.33333333333333 5.77651515151515  3.13541666666667 3.90625  4.73958333333333 2.34375  C 6.34375 0.78125  8.26388888888889 0  10.5 0  C 12.7361111111111 0  14.65625 0.78125  16.2604166666667 2.34375  C 17.8645833333333 3.90625  18.6666666666667 5.77651515151515  18.6666666666667 7.95454545454546  L 18.6666666666667 11.3636363636364  L 19.25 11.3636363636364  C 19.7361111111111 11.3636363636364  20.1493055555556 11.5293560606061  20.4895833333333 11.8607954545455  Z " fill-rule="nonzero" fill="#000000" stroke="none" fill-opacity="0.635294117647059" transform="matrix(1 0 0 1 223 228 )" />
  </g>
</svg>