<?xml version="1.0" encoding="utf-8"?>
<svg version="1.1" xmlns:xlink="http://www.w3.org/1999/xlink" width="23px" height="35px" xmlns="http://www.w3.org/2000/svg">
  <defs>
    <filter x="573px" y="-1px" width="23px" height="35px" filterUnits="userSpaceOnUse" id="filter91">
      <feOffset dx="0" dy="0" in="SourceAlpha" result="shadowOffsetInner" />
      <feGaussianBlur stdDeviation="5" in="shadowOffsetInner" result="shadowGaussian" />
      <feComposite in2="shadowGaussian" operator="atop" in="SourceAlpha" result="shadowComposite" />
      <feColorMatrix type="matrix" values="0 0 0 0 0  0 0 0 0 0  0 0 0 0 0  0 0 0 0.313725490196078 0  " in="shadowComposite" />
    </filter>
    <g id="widget92">
      <path d="M 2.962890625 12.22265625  C 2.98763020833333 12.37109375  3 12.546875  3 12.75  L 3 14.25  C 3 14.453125  2.98763020833333 14.62890625  2.962890625 14.77734375  C 2.93815104166667 14.92578125  2.90885416666667 15  2.875 15  L 0.125 15  C 0.0911458333333333 15  0.0618489583333333 14.92578125  0.037109375 14.77734375  C 0.0123697916666667 14.62890625  0 14.453125  0 14.25  L 0 12.75  C 0 12.546875  0.0123697916666667 12.37109375  0.037109375 12.22265625  C 0.0618489583333333 12.07421875  0.0911458333333333 12  0.125 12  L 2.875 12  C 2.90885416666667 12  2.93815104166667 12.07421875  2.962890625 12.22265625  Z M 2.962890625 6.22265625  C 2.98763020833333 6.37109375  3 6.546875  3 6.75  L 3 8.25  C 3 8.453125  2.98763020833333 8.62890625  2.962890625 8.77734375  C 2.93815104166667 8.92578125  2.90885416666667 9  2.875 9  L 0.125 9  C 0.0911458333333333 9  0.0618489583333333 8.92578125  0.037109375 8.77734375  C 0.0123697916666667 8.62890625  0 8.453125  0 8.25  L 0 6.75  C 0 6.546875  0.0123697916666667 6.37109375  0.037109375 6.22265625  C 0.0618489583333333 6.07421875  0.0911458333333333 6  0.125 6  L 2.875 6  C 2.90885416666667 6  2.93815104166667 6.07421875  2.962890625 6.22265625  Z M 2.962890625 0.222656250000001  C 2.98763020833333 0.371093749999999  3 0.546874999999999  3 0.750000000000001  L 3 2.25  C 3 2.453125  2.98763020833333 2.62890625  2.962890625 2.77734375  C 2.93815104166667 2.92578125  2.90885416666667 3  2.875 3  L 0.125 3  C 0.0911458333333333 3  0.0618489583333333 2.92578125  0.037109375 2.77734375  C 0.0123697916666667 2.62890625  0 2.453125  0 2.25  L 0 0.750000000000001  C 0 0.546874999999999  0.0123697916666667 0.371093749999999  0.037109375 0.222656250000001  C 0.0618489583333333 0.0742187499999991  0.0911458333333333 0  0.125 0  L 2.875 0  C 2.90885416666667 0  2.93815104166667 0.0742187499999991  2.962890625 0.222656250000001  Z " fill-rule="nonzero" fill="#7f7f7f" stroke="none" transform="matrix(1 0 0 1 583 9 )" />
    </g>
  </defs>
  <g transform="matrix(1 0 0 1 -573 1 )">
    <use xlink:href="#widget92" filter="url(#filter91)" />
    <use xlink:href="#widget92" />
  </g>
</svg>