<?xml version="1.0" encoding="utf-8"?>
<svg version="1.1" xmlns:xlink="http://www.w3.org/1999/xlink" width="38px" height="40px" xmlns="http://www.w3.org/2000/svg">
  <defs>
    <filter x="-1px" y="283px" width="38px" height="40px" filterUnits="userSpaceOnUse" id="filter93">
      <feOffset dx="0" dy="0" in="SourceAlpha" result="shadowOffsetInner" />
      <feGaussianBlur stdDeviation="5" in="shadowOffsetInner" result="shadowGaussian" />
      <feComposite in2="shadowGaussian" operator="atop" in="SourceAlpha" result="shadowComposite" />
      <feColorMatrix type="matrix" values="0 0 0 0 0  0 0 0 0 0  0 0 0 0 0  0 0 0 0.313725490196078 0  " in="shadowComposite" />
    </filter>
    <g id="widget94">
      <path d="M 18 10  C 18 10.1544401544402  17.9019189765458 10.2874302874303  17.7057569296375 10.3989703989704  L 0.716417910447761 19.8970398970399  C 0.520255863539446 20.00858000858  0.35181236673774 20.02145002145  0.211087420042644 19.9356499356499  C 0.070362473347548 19.8498498498499  0 19.6954096954097  0 19.4723294723295  L 0 0.527670527670527  C 0 0.304590304590302  0.070362473347548 0.150150150150148  0.211087420042644 0.064350064350065  C 0.35181236673774 -0.0214500214500246  0.520255863539446 -0.00858000858000807  0.716417910447761 0.102960102960103  L 17.7057569296375 9.6010296010296  C 17.9019189765458 9.71256971256971  18 9.84555984555985  18 10  Z " fill-rule="nonzero" fill="#fe8333" stroke="none" transform="matrix(1 0 0 1 9 293 )" />
    </g>
  </defs>
  <g transform="matrix(1 0 0 1 1 -283 )">
    <use xlink:href="#widget94" filter="url(#filter93)" />
    <use xlink:href="#widget94" />
  </g>
</svg>