<?xml version="1.0" encoding="utf-8"?>
<svg version="1.1" xmlns:xlink="http://www.w3.org/1999/xlink" width="23px" height="20px" xmlns="http://www.w3.org/2000/svg">
  <g transform="matrix(1 0 0 1 -543 -7 )">
    <path d="M 9.06223958333333 9.09254807692308  C 9.73706597222222 8.41546474358974  10.5496527777778 8.07692307692307  11.5 8.07692307692308  C 12.4503472222222 8.07692307692307  13.2629340277778 8.41546474358974  13.9377604166667 9.09254807692308  C 14.6125868055556 9.76963141025641  14.95 10.5849358974359  14.95 11.5384615384615  C 14.95 12.4919871794872  14.6125868055556 13.3072916666667  13.9377604166667 13.984375  C 13.2629340277778 14.6614583333333  12.4503472222222 15  11.5 15  C 10.5496527777778 15  9.73706597222222 14.6614583333333  9.06223958333333 13.984375  C 8.38741319444445 13.3072916666667  8.05 12.4919871794872  8.05 11.5384615384615  C 8.05 10.5849358974359  8.38741319444445 9.76963141025641  9.06223958333333 9.09254807692308  Z M 17.25 3.07692307692308  L 19.9333333333333 3.07692307692308  C 20.7798611111111 3.07692307692308  21.5026041666667 3.37740384615385  22.1015625 3.97836538461539  C 22.7005208333333 4.57932692307692  23 5.30448717948718  23 6.15384615384615  L 23 16.9230769230769  C 23 17.7724358974359  22.7005208333333 18.4975961538462  22.1015625 19.0985576923077  C 21.5026041666667 19.6995192307692  20.7798611111111 20  19.9333333333333 20  L 3.06666666666667 20  C 2.22013888888889 20  1.49739583333333 19.6995192307692  0.8984375 19.0985576923077  C 0.299479166666667 18.4975961538462  0 17.7724358974359  0 16.9230769230769  L 0 6.15384615384615  C 0 5.30448717948718  0.299479166666667 4.57932692307692  0.8984375 3.97836538461539  C 1.49739583333333 3.37740384615385  2.22013888888889 3.07692307692308  3.06666666666667 3.07692307692308  L 5.75 3.07692307692308  L 6.3609375 1.44230769230769  C 6.51267361111111 1.04967948717949  6.79019097222222 0.711137820512819  7.19348958333333 0.426682692307692  C 7.59678819444445 0.142227564102566  8.01006944444445 0  8.43333333333333 0  L 14.5666666666667 0  C 14.9899305555556 0  15.4032118055556 0.142227564102566  15.8065104166667 0.426682692307692  C 16.2098090277778 0.711137820512819  16.4873263888889 1.04967948717949  16.6390625 1.44230769230769  L 17.25 3.07692307692308  Z M 7.70859375 15.3425480769231  C 8.75876736111111 16.396233974359  10.0225694444444 16.9230769230769  11.5 16.9230769230769  C 12.9774305555556 16.9230769230769  14.2412326388889 16.396233974359  15.29140625 15.3425480769231  C 16.3415798611111 14.2888621794872  16.8666666666667 13.0208333333333  16.8666666666667 11.5384615384615  C 16.8666666666667 10.0560897435897  16.3415798611111 8.7880608974359  15.29140625 7.734375  C 14.2412326388889 6.6806891025641  12.9774305555556 6.15384615384615  11.5 6.15384615384615  C 10.0225694444444 6.15384615384615  8.75876736111111 6.6806891025641  7.70859375 7.734375  C 6.65842013888889 8.7880608974359  6.13333333333333 10.0560897435897  6.13333333333333 11.5384615384615  C 6.13333333333333 13.0208333333333  6.65842013888889 14.2888621794872  7.70859375 15.3425480769231  Z " fill-rule="nonzero" fill="#7f7f7f" stroke="none" transform="matrix(1 0 0 1 543 7 )" />
  </g>
</svg>